<svg xmlns="http://www.w3.org/2000/svg" width="20" height="20" viewBox="0 0 20 20" fill="none">
                            <path fill-rule="evenodd" clip-rule="evenodd"
                                d="M9.99998 0.833374C4.93737 0.833374 0.833313 4.93743 0.833313 10C0.833313 15.0627 4.93737 19.1667 9.99998 19.1667C15.0626 19.1667 19.1666 15.0627 19.1666 10C19.1666 4.93743 15.0626 0.833374 9.99998 0.833374ZM14.3392 8.0893C14.6647 7.76386 14.6647 7.23622 14.3392 6.91079C14.0138 6.58535 13.4862 6.58535 13.1607 6.91079L8.74998 11.3215L6.83924 9.41079C6.5138 9.08535 5.98616 9.08535 5.66072 9.41079C5.33529 9.73622 5.33529 10.2639 5.66072 10.5893L8.16072 13.0893C8.48616 13.4147 9.0138 13.4147 9.33924 13.0893L14.3392 8.0893Z"
                                fill="#5951FF" />
                        </svg>