<svg xmlns="http://www.w3.org/2000/svg" width="40" height="40" viewBox="0 1 50 45" fill="none">
  <path d="M29.7309 3.33338H10.2691C9.39052 3.33335 8.63254 3.33332 8.00827 3.38433C7.34936 3.43816 6.694 3.55702 6.06336 3.87835C5.12255 4.35771 4.35765 5.12262 3.87828 6.06343C3.55696 6.69406 3.4381 7.34942 3.38427 8.00833C3.33326 8.6326 3.33329 9.39052 3.33331 10.2691V10.6667C3.33331 11.6001 3.33331 12.0668 3.51497 12.4234C3.67476 12.737 3.92973 12.9919 4.24333 13.1517C4.59985 13.3334 5.06656 13.3334 5.99998 13.3334H34C34.9334 13.3334 35.4001 13.3334 35.7566 13.1517C36.0702 12.9919 36.3252 12.737 36.485 12.4234C36.6666 12.0668 36.6666 11.6001 36.6666 10.6667V10.2691C36.6667 9.39054 36.6667 8.63261 36.6157 8.00833C36.5619 7.34942 36.443 6.69406 36.1217 6.06343C35.6423 5.12262 34.8774 4.35771 33.9366 3.87835C33.306 3.55702 32.6506 3.43816 31.9917 3.38433C31.3674 3.33332 30.6094 3.33335 29.7309 3.33338Z" fill="white"/>
  <path d="M36.6666 19.3334C36.6666 18.4 36.6666 17.9332 36.485 17.5767C36.3252 17.2631 36.0702 17.0082 35.7566 16.8484C35.4001 16.6667 34.9334 16.6667 34 16.6667H19.3333C18.3999 16.6667 17.9332 16.6667 17.5767 16.8484C17.2631 17.0082 17.0081 17.2631 16.8483 17.5767C16.6666 17.9332 16.6666 18.4 16.6666 19.3334L16.6666 34C16.6666 34.9335 16.6666 35.4002 16.8483 35.7567C17.0081 36.0703 17.2631 36.3253 17.5767 36.4851C17.9332 36.6667 18.3999 36.6667 19.3333 36.6667H29.7309C30.6095 36.6667 31.3674 36.6668 31.9917 36.6158C32.6506 36.5619 33.306 36.4431 33.9366 36.1217C34.8774 35.6424 35.6423 34.8775 36.1217 33.9367C36.443 33.306 36.5619 32.6507 36.6157 31.9918C36.6667 31.3675 36.6667 30.6096 36.6666 29.731V19.3334Z" fill="white"/>
  <path d="M10.6666 36.6667C11.6001 36.6667 12.0668 36.6667 12.4233 36.4851C12.7369 36.3253 12.9919 36.0703 13.1517 35.7567C13.3333 35.4002 13.3333 34.9335 13.3333 34L13.3333 19.3334C13.3333 18.4 13.3333 17.9332 13.1517 17.5767C12.9919 17.2631 12.7369 17.0082 12.4233 16.8484C12.0668 16.6667 11.6001 16.6667 10.6666 16.6667H5.99998C5.06656 16.6667 4.59985 16.6667 4.24333 16.8484C3.92973 17.0082 3.67476 17.2631 3.51497 17.5767C3.33331 17.9332 3.33331 18.4 3.33331 19.3334V29.731C3.33329 30.6095 3.33326 31.3675 3.38427 31.9918C3.4381 32.6507 3.55696 33.306 3.87828 33.9367C4.35765 34.8775 5.12255 35.6424 6.06336 36.1217C6.694 36.4431 7.34936 36.5619 8.00827 36.6158C8.63255 36.6668 9.39047 36.6667 10.269 36.6667H10.6666Z" fill="white"/>
</svg>