<svg xmlns="http://www.w3.org/2000/svg" width="162" height="24" viewBox="0 0 162 24" fill="none">
  <path d="M13.2289 18.5093V11.7772C12.7045 11.1359 12.0152 10.6093 11.1608 10.1967C10.3063 9.78484 9.6967 9.57886 8.64831 9.57886C7.69139 9.57886 6.80818 9.83049 5.9994 10.3343C5.19026 10.8381 4.5464 11.5136 4.06807 12.3608C3.58939 13.2081 3.35013 14.1355 3.35013 15.1431C3.35013 16.1507 3.58939 17.0781 4.06807 17.9254C4.5464 18.7726 5.19026 19.4425 5.9994 19.9348C6.80818 20.4269 7.69139 20.6731 8.64831 20.6731C9.6967 20.6731 10.3063 20.4671 11.1608 20.0549C12.0152 19.6427 12.7045 19.1275 13.2289 18.5093ZM16.4419 23.4212H13.2289V21.8068C11.8844 23.0891 10.5626 23.73 8.57986 23.73C7.03048 23.73 5.6005 23.3467 4.29001 22.5796C2.97988 21.8125 1.9372 20.7704 1.16251 19.4539C0.387724 18.1374 0.000244141 16.7004 0.000244141 15.1431C0.000244141 13.5857 0.387724 12.1489 1.16251 10.8323C1.9372 9.51582 2.97988 8.4737 4.29001 7.70662C5.6005 6.93954 7.03048 6.55609 8.57986 6.55609C10.608 6.55609 11.9298 7.19709 13.2289 8.47935V0.27014H16.4419V23.4212Z" fill="#0B0840"/>
  <path d="M22.8664 13.151H31.8903C31.6626 11.9831 31.1383 11.0671 30.3182 10.4029C29.4978 9.73882 28.5177 9.40711 27.3785 9.40711C26.2389 9.40711 25.2592 9.73882 24.4389 10.4029C23.6184 11.0671 23.0944 11.9831 22.8664 13.151ZM32.4544 22.6996C31.144 23.3866 29.68 23.73 28.0621 23.73C26.4211 23.73 24.9345 23.3698 23.6013 22.6483C22.2682 21.9268 21.2202 20.9139 20.4564 19.6085C19.693 18.3031 19.3116 16.8262 19.3116 15.1776C19.3116 13.4831 19.6703 11.9831 20.3883 10.6777C21.1059 9.37258 22.0803 8.35925 23.3107 7.63818C24.5413 6.91665 25.8971 6.55607 27.3785 6.55607C28.8595 6.55607 30.2154 6.91665 31.4461 7.63818C32.6768 8.35925 33.6507 9.37258 34.3687 10.6777C35.0863 11.9831 35.4454 13.4831 35.4454 15.1776V16.0021H22.6955C22.855 17.4215 23.4304 18.5552 24.4218 19.4026C25.4128 20.2498 26.6265 20.6731 28.0621 20.6731C30.204 20.6731 31.7765 19.746 32.7792 17.8912L35.548 19.6769C34.7959 21.0051 33.7649 22.0127 32.4544 22.6996Z" fill="#0B0840"/>
  <path d="M59.8505 13.0135V23.4211H56.6374V13.0819C56.6374 11.8683 56.3585 10.9926 55.8 10.4543C55.2415 9.91629 54.632 9.64726 53.9712 9.64726C53.356 9.64726 52.7465 9.83648 52.1427 10.2141C51.5385 10.5918 51.0659 11.0553 50.724 11.6054V11.6738V23.4211H47.511V13.0819C47.511 11.8683 47.2203 10.9926 46.6392 10.4543C46.058 9.91629 45.4372 9.64726 44.7763 9.64726C44.1838 9.64726 43.5857 9.83038 42.9819 10.1967C42.3781 10.5633 41.9051 11.0211 41.5633 11.5709V23.4211H38.3502V6.86501H41.5633V8.41091C42.0647 7.83798 42.6571 7.38593 43.3407 7.05386C44.0243 6.72179 44.765 6.55608 45.5624 6.55608C46.4055 6.55608 47.2033 6.74493 47.9553 7.12255C48.7073 7.50062 49.3225 8.1131 49.8011 8.96035C50.3479 8.25057 51.0432 7.67235 51.8863 7.22559C52.7295 6.7791 53.6751 6.55608 54.7231 6.55608C56.1134 6.55608 57.3154 7.04848 58.3294 8.03293C59.3435 9.01739 59.8505 10.6776 59.8505 13.0135Z" fill="#0B0840"/>
  <path d="M75.9833 17.9254C76.4619 17.0781 76.701 16.1507 76.701 15.1431C76.701 14.1355 76.4619 13.2081 75.9833 12.3609C75.5046 11.5136 74.8608 10.8381 74.052 10.3343C73.2429 9.83041 72.36 9.57887 71.4027 9.57887C70.4458 9.57887 69.5626 9.83041 68.7538 10.3343C67.9447 10.8381 67.3012 11.5136 66.8225 12.3609C66.3438 13.2081 66.1046 14.1355 66.1046 15.1431C66.1046 16.1507 66.3438 17.0781 66.8225 17.9254C67.3012 18.7726 67.9447 19.4425 68.7538 19.9348C69.5626 20.427 70.4458 20.6731 71.4027 20.6731C72.36 20.6731 73.2429 20.427 74.052 19.9348C74.8608 19.4425 75.5046 18.7726 75.9833 17.9254ZM63.917 19.4539C63.1422 18.1374 62.7547 16.7004 62.7547 15.1431C62.7547 13.5857 63.1422 12.1489 63.917 10.8323C64.6916 9.51583 65.74 8.47371 67.0619 7.70663C68.3833 6.93955 69.8306 6.5561 71.4027 6.5561C72.9752 6.5561 74.4222 6.93955 75.744 7.70663C77.0658 8.47371 78.1139 9.51583 78.8886 10.8323C79.6637 12.1489 80.0509 13.5857 80.0509 15.1431C80.0509 16.7004 79.6637 18.1374 78.8886 19.4539C78.1139 20.7704 77.0658 21.8125 75.744 22.5796C74.4222 23.3467 72.9752 23.73 71.4027 23.73C69.8306 23.73 68.3833 23.3467 67.0619 22.5796C65.74 21.8125 64.6916 20.7704 63.917 19.4539Z" fill="#0B0840"/>
  <path d="M93.2583 19.7038C92.4476 20.1969 91.9669 20.403 91.0901 20.403C90.0869 20.403 89.1659 20.204 88.3522 19.8115C87.5715 19.435 86.9392 18.9643 86.4707 18.4116V11.872C86.9388 11.2986 87.5713 10.817 88.3522 10.4402C89.1661 10.0478 90.0873 9.84879 91.0901 9.84879C91.9662 9.84879 92.4462 10.0596 93.2559 10.5637C94.0225 11.0411 94.6412 11.6905 95.0951 12.494C95.548 13.2963 95.7777 14.1876 95.7777 15.143C95.7777 16.0984 95.548 16.9897 95.0951 17.7921V17.792C94.6416 18.5946 94.0236 19.2379 93.2583 19.7038ZM98.4655 10.6948C97.6703 9.34374 96.5857 8.25984 95.2418 7.47321C94.0244 6.76065 92.8699 6.28609 91.1925 6.28609C89.3305 6.28609 87.7452 6.81956 86.4707 7.87334V4.57764e-05H82.7203V23.6911H86.4707V22.402C87.7793 23.4628 89.3648 24 91.1925 24C92.8699 24 94.0244 23.5255 95.2418 22.8128C96.5858 22.0261 97.6703 20.9421 98.4655 19.5913C99.2615 18.2386 99.665 16.742 99.665 15.143C99.665 13.5441 99.2615 12.0475 98.4655 10.6948Z" fill="#5951FF"/>
  <path d="M145.014 13.3953L143.493 12.6248C142.83 12.2983 142.414 12.0371 142.245 11.8412C142.089 11.6714 141.998 11.4494 141.998 11.2144C141.998 10.914 142.128 10.6658 142.388 10.4699C142.648 10.274 143.012 10.1696 143.493 10.1696C144.351 10.1696 145.299 10.6919 146.352 11.7367L148.926 9.13776C148.289 8.2628 147.457 7.57059 146.508 7.07433C145.572 6.60417 144.52 6.35604 143.467 6.35604C141.894 6.35604 140.595 6.8262 139.581 7.76645C138.567 8.70678 138.06 9.84305 138.06 11.1621C138.06 13.2125 139.399 14.9234 142.089 16.2946L143.493 16.9999C144.702 17.6138 145.299 18.2406 145.299 18.8936C145.299 19.2462 145.131 19.5466 144.806 19.8208C144.468 20.0821 144.026 20.2126 143.48 20.2126C142.973 20.2126 142.388 20.0299 141.738 19.6772C141.089 19.3246 140.504 18.8544 140.023 18.2798L137.462 21.1008C138.905 23.0075 140.842 23.974 143.259 23.974C145.078 23.974 146.534 23.4777 147.613 22.4721C148.692 21.4795 149.237 20.2388 149.237 18.7499C149.237 17.6268 148.939 16.6603 148.341 15.8246C147.717 15.0148 146.612 14.205 145.014 13.3953Z" fill="#5951FF"/>
  <path d="M159.206 19.0764C158.868 19.3376 158.062 19.8992 157.152 19.7686C156.399 19.6641 155.788 19.1156 155.697 17.261V10.3001H160.596V6.6955H155.697V2.00693H151.538V2.93426V16.7126C151.538 18.9066 152.084 24 157.152 24C159.713 23.9608 161.259 22.5634 161.909 22.0149L162 21.9496L159.505 18.8544C159.492 18.8544 159.323 18.998 159.206 19.0764Z" fill="#5951FF"/>
  <path d="M110.172 19.6202C107.652 19.6202 105.597 17.5548 105.597 15.0105C105.597 12.4653 107.652 10.401 110.172 10.401C112.692 10.401 114.746 12.4653 114.746 15.0105C114.733 17.5548 112.679 19.6202 110.172 19.6202ZM117.743 10.7208C116.252 8.05014 113.415 6.24633 110.172 6.24633C105.378 6.24633 101.476 10.1675 101.476 15.0105C101.476 19.8407 105.378 23.7748 110.172 23.7748C113.415 23.7748 116.253 21.9656 117.743 19.2938C117.034 18.0271 116.63 16.5648 116.63 15.0105C116.63 13.4521 117.034 11.9887 117.743 10.7208Z" fill="#5951FF"/>
  <path d="M127.192 19.6202C124.672 19.6202 122.617 17.5548 122.617 15.0105C122.617 12.4653 124.672 10.401 127.192 10.401C129.711 10.401 131.766 12.4653 131.766 15.0105C131.753 17.5548 129.698 19.6202 127.192 19.6202ZM127.192 6.24633C123.94 6.24633 121.1 8.05014 119.609 10.7208C118.9 11.9887 118.496 13.4521 118.496 15.0105C118.496 16.5648 118.9 18.0271 119.609 19.2938C121.1 21.9656 123.94 23.7748 127.192 23.7748C131.973 23.7748 135.875 19.8407 135.875 15.0105C135.875 10.1675 131.973 6.24633 127.192 6.24633Z" fill="#5951FF"/>
</svg>