<svg xmlns="http://www.w3.org/2000/svg" width="162" height="24" viewBox="0 0 162 24" fill="none">
<path d="M13.2289 18.5093V11.7771C12.7045 11.1358 12.0152 10.6093 11.1608 10.1967C10.3063 9.78479 9.6967 9.57881 8.64831 9.57881C7.69139 9.57881 6.80818 9.83044 5.9994 10.3342C5.19026 10.838 4.5464 11.5135 4.06807 12.3608C3.58939 13.208 3.35013 14.1355 3.35013 15.1431C3.35013 16.1506 3.58939 17.0781 4.06807 17.9253C4.5464 18.7726 5.19026 19.4424 5.9994 19.9348C6.80818 20.4269 7.69139 20.673 8.64831 20.673C9.6967 20.673 10.3063 20.4671 11.1608 20.0548C12.0152 19.6427 12.7045 19.1274 13.2289 18.5093ZM16.4419 23.4211H13.2289V21.8067C11.8844 23.0891 10.5626 23.73 8.57986 23.73C7.03048 23.73 5.6005 23.3466 4.29001 22.5795C2.97988 21.8125 1.9372 20.7703 1.16251 19.4538C0.387724 18.1373 0.000244141 16.7004 0.000244141 15.1431C0.000244141 13.5857 0.387724 12.1488 1.16251 10.8323C1.9372 9.51577 2.97988 8.47366 4.29001 7.70658C5.6005 6.9395 7.03048 6.55605 8.57986 6.55605C10.608 6.55605 11.9298 7.19704 13.2289 8.47931V0.270094H16.4419V23.4211Z" fill="white"/>
<path d="M22.8664 13.151H31.8903C31.6626 11.9831 31.1383 11.0671 30.3182 10.4029C29.4978 9.73878 28.5177 9.40708 27.3785 9.40708C26.2389 9.40708 25.2592 9.73878 24.4389 10.4029C23.6184 11.0671 23.0944 11.9831 22.8664 13.151ZM32.4544 22.6996C31.144 23.3865 29.68 23.73 28.0621 23.73C26.4211 23.73 24.9345 23.3698 23.6013 22.6483C22.2682 21.9268 21.2202 20.9139 20.4564 19.6084C19.693 18.303 19.3116 16.8262 19.3116 15.1776C19.3116 13.4831 19.6703 11.9831 20.3883 10.6777C21.1059 9.37255 22.0803 8.35922 23.3107 7.63815C24.5413 6.91662 25.8971 6.55604 27.3785 6.55604C28.8595 6.55604 30.2154 6.91662 31.4461 7.63815C32.6768 8.35922 33.6507 9.37255 34.3687 10.6777C35.0863 11.9831 35.4454 13.4831 35.4454 15.1776V16.0021H22.6955C22.855 17.4215 23.4304 18.5552 24.4218 19.4025C25.4128 20.2498 26.6265 20.673 28.0621 20.673C30.204 20.673 31.7765 19.746 32.7792 17.8911L35.548 19.6768C34.7959 21.0051 33.7649 22.0127 32.4544 22.6996Z" fill="white"/>
<path d="M59.8505 13.0135V23.4211H56.6374V13.082C56.6374 11.8684 56.3585 10.9926 55.8 10.4543C55.2415 9.91635 54.632 9.64732 53.9712 9.64732C53.356 9.64732 52.7465 9.83654 52.1427 10.2142C51.5385 10.5919 51.0659 11.0554 50.724 11.6055V11.6739V23.4211H47.511V13.082C47.511 11.8684 47.2203 10.9926 46.6392 10.4543C46.058 9.91635 45.4372 9.64732 44.7763 9.64732C44.1838 9.64732 43.5857 9.83044 42.9819 10.1968C42.3781 10.5634 41.9051 11.0211 41.5633 11.5709V23.4211H38.3502V6.86507H41.5633V8.41097C42.0647 7.83804 42.6571 7.38599 43.3407 7.05392C44.0243 6.72186 44.765 6.55614 45.5624 6.55614C46.4055 6.55614 47.2033 6.74499 47.9553 7.12261C48.7073 7.50068 49.3225 8.11316 49.8011 8.96041C50.3479 8.25064 51.0432 7.67241 51.8863 7.22565C52.7295 6.77916 53.6751 6.55614 54.7231 6.55614C56.1134 6.55614 57.3154 7.04854 58.3294 8.03299C59.3435 9.01745 59.8505 10.6777 59.8505 13.0135Z" fill="white"/>
<path d="M75.9833 17.9253C76.4619 17.0781 76.701 16.1506 76.701 15.1431C76.701 14.1355 76.4619 13.208 75.9833 12.3608C75.5046 11.5135 74.8608 10.838 74.052 10.3342C73.2429 9.83035 72.36 9.57881 71.4027 9.57881C70.4458 9.57881 69.5626 9.83035 68.7538 10.3342C67.9447 10.838 67.3012 11.5135 66.8225 12.3608C66.3438 13.208 66.1046 14.1355 66.1046 15.1431C66.1046 16.1506 66.3438 17.0781 66.8225 17.9253C67.3012 18.7726 67.9447 19.4424 68.7538 19.9348C69.5626 20.4269 70.4458 20.673 71.4027 20.673C72.36 20.673 73.2429 20.4269 74.052 19.9348C74.8608 19.4424 75.5046 18.7726 75.9833 17.9253ZM63.917 19.4538C63.1422 18.1373 62.7547 16.7004 62.7547 15.1431C62.7547 13.5857 63.1422 12.1488 63.917 10.8323C64.6916 9.51577 65.74 8.47365 67.0619 7.70657C68.3833 6.93949 69.8306 6.55604 71.4027 6.55604C72.9752 6.55604 74.4222 6.93949 75.744 7.70657C77.0658 8.47365 78.1139 9.51577 78.8886 10.8323C79.6637 12.1488 80.0509 13.5857 80.0509 15.1431C80.0509 16.7004 79.6637 18.1373 78.8886 19.4538C78.1139 20.7703 77.0658 21.8125 75.744 22.5795C74.4222 23.3466 72.9752 23.73 71.4027 23.73C69.8306 23.73 68.3833 23.3466 67.0619 22.5795C65.74 21.8125 64.6916 20.7703 63.917 19.4538Z" fill="white"/>
<path d="M93.2583 19.7038C92.4476 20.1969 91.9669 20.403 91.0901 20.403C90.0869 20.403 89.1659 20.204 88.3522 19.8115C87.5715 19.4349 86.9392 18.9642 86.4707 18.4115V11.872C86.9388 11.2985 87.5713 10.817 88.3522 10.4401C89.1661 10.0477 90.0873 9.84874 91.0901 9.84874C91.9662 9.84874 92.4462 10.0596 93.2559 10.5636C94.0225 11.0411 94.6412 11.6905 95.0951 12.494C95.548 13.2963 95.7777 14.1876 95.7777 15.143C95.7777 16.0984 95.548 16.9897 95.0951 17.7921V17.792C94.6416 18.5946 94.0236 19.2378 93.2583 19.7038ZM98.4655 10.6947C97.6703 9.34369 96.5857 8.25979 95.2418 7.47316C94.0244 6.7606 92.8699 6.28604 91.1925 6.28604C89.3305 6.28604 87.7452 6.81952 86.4707 7.87329V0H82.7203V23.6911H86.4707V22.402C87.7793 23.4628 89.3648 24 91.1925 24C92.8699 24 94.0244 23.5254 95.2418 22.8128C96.5858 22.0261 97.6703 20.9421 98.4655 19.5912C99.2615 18.2386 99.665 16.742 99.665 15.143C99.665 13.5441 99.2615 12.0475 98.4655 10.6947Z" fill="#5951FF"/>
<path d="M145.014 13.3953L143.493 12.6247C142.83 12.2982 142.414 12.0371 142.245 11.8411C142.089 11.6714 141.998 11.4493 141.998 11.2143C141.998 10.9139 142.128 10.6657 142.388 10.4698C142.648 10.274 143.012 10.1695 143.493 10.1695C144.351 10.1695 145.299 10.6918 146.352 11.7366L148.926 9.13768C148.289 8.26272 147.457 7.57052 146.508 7.07426C145.572 6.60409 144.52 6.35596 143.467 6.35596C141.894 6.35596 140.595 6.82613 139.581 7.76637C138.567 8.7067 138.06 9.84298 138.06 11.162C138.06 13.2124 139.399 14.9233 142.089 16.2946L143.493 16.9998C144.702 17.6137 145.299 18.2405 145.299 18.8935C145.299 19.2461 145.131 19.5465 144.806 19.8208C144.468 20.082 144.026 20.2125 143.48 20.2125C142.973 20.2125 142.388 20.0298 141.738 19.6771C141.089 19.3245 140.504 18.8543 140.023 18.2797L137.462 21.1007C138.905 23.0074 140.842 23.9739 143.259 23.9739C145.078 23.9739 146.534 23.4776 147.613 22.472C148.692 21.4794 149.237 20.2387 149.237 18.7499C149.237 17.6267 148.939 16.6603 148.341 15.8245C147.717 15.0147 146.612 14.2049 145.014 13.3953Z" fill="#5951FF"/>
<path d="M159.206 19.0764C158.868 19.3376 158.062 19.8992 157.152 19.7686C156.399 19.6641 155.788 19.1156 155.697 17.261V10.3001H160.596V6.6955H155.697V2.00693H151.538V2.93426V16.7126C151.538 18.9066 152.084 24 157.152 24C159.713 23.9608 161.259 22.5634 161.909 22.0149L162 21.9496L159.505 18.8544C159.492 18.8544 159.323 18.998 159.206 19.0764Z" fill="#5951FF"/>
<path d="M110.172 19.6203C107.652 19.6203 105.597 17.5549 105.597 15.0106C105.597 12.4654 107.652 10.401 110.172 10.401C112.692 10.401 114.746 12.4654 114.746 15.0106C114.733 17.5549 112.679 19.6203 110.172 19.6203ZM117.743 10.7209C116.252 8.0502 113.415 6.24639 110.172 6.24639C105.378 6.24639 101.476 10.1675 101.476 15.0106C101.476 19.8408 105.378 23.7749 110.172 23.7749C113.415 23.7749 116.253 21.9656 117.743 19.2938C117.034 18.0272 116.63 16.5648 116.63 15.0106C116.63 13.4521 117.034 11.9887 117.743 10.7209Z" fill="#5951FF"/>
<path d="M127.192 19.6203C124.672 19.6203 122.617 17.5549 122.617 15.0106C122.617 12.4654 124.672 10.401 127.192 10.401C129.711 10.401 131.766 12.4654 131.766 15.0106C131.753 17.5549 129.698 19.6203 127.192 19.6203ZM127.192 6.24639C123.94 6.24639 121.1 8.0502 119.609 10.7209C118.9 11.9887 118.496 13.4521 118.496 15.0106C118.496 16.5648 118.9 18.0272 119.609 19.2938C121.1 21.9656 123.94 23.7749 127.192 23.7749C131.973 23.7749 135.875 19.8408 135.875 15.0106C135.875 10.1675 131.973 6.24639 127.192 6.24639Z" fill="#5951FF"/>
</svg>